<svg xmlns="http://www.w3.org/2000/svg" height="602.067228426225" width="548.2857184072359"><rect id="backgroundrect" width="100%" height="100%" x="0" y="0" fill="none" stroke="none"/><g class="currentLayer" style=""><title>Layer 1</title><path d="m77.160156 293.757812h77.386719v52.421876h-77.386719zm0 0" id="svg_1" class="" fill="#ffffff" fill-opacity="1"/><path d="m235.007812 346.179688c12.859376-20.882813 30.050782-38.761719 50.410157-52.421876h-54.734375v52.421876zm0 0" id="svg_2" class="" fill="#ffffff" fill-opacity="1"/><path d="m209.03125 424.8125h-58.140625c-8.308594.054688-15.027344 6.785156-15.066406 15.089844v83.515625h94.097656c-14.117187-25.863281-21.496094-54.871094-21.457031-84.339844 0-4.734375.195312-9.273437.566406-14.265625zm0 0" id="svg_3" class="" fill="#ffffff" fill-opacity="1"/><path d="m77.160156 158.957031h77.386719v52.421875h-77.386719zm0 0" id="svg_4" class="" fill="#ffffff" fill-opacity="1"/><path d="m230.683594 158.957031h77.386718v52.421875h-77.386718zm0 0" id="svg_5" class="" fill="#ffffff" fill-opacity="1"/><path d="m211.785156 404.84375c2.640625-13.339844 6.828125-26.328125 12.484375-38.695312h-3.3125c-5.566406.015624-10.121093-4.421876-10.242187-9.984376v-72.539062c.136718-5.535156 4.707031-9.925781 10.246094-9.839844h96.925781c1.339843-.023437 2.675781.25 3.898437.796875 19.898438-7.644531 41.027344-11.570312 62.339844-11.589843 1.386719 0 2.578125.0625 3.828125.09375v-128.039063l-195.324219-135.046875-194.101562 135.027344v388.390625h117.328125v-83.515625c.050781-19.332032 15.703125-34.992188 35.035156-35.058594zm116.257813-183.480469c0 5.515625-4.472657 9.984375-9.988281 9.984375h-97.355469c-5.515625 0-9.984375-4.46875-9.984375-9.984375v-72.394531c0-5.511719 4.46875-9.984375 9.984375-9.984375h97.355469c5.515624 0 9.988281 4.472656 9.988281 9.984375zm-153.527344 0c0 5.515625-4.46875 9.984375-9.984375 9.984375h-97.355469c-5.515625 0-9.984375-4.46875-9.984375-9.984375v-72.394531c0-5.511719 4.46875-9.984375 9.984375-9.984375h97.355469c5.515625 0 9.984375 4.472656 9.984375 9.984375zm0 134.800781c0 5.515626-4.46875 9.984376-9.984375 9.984376h-97.355469c-5.515625 0-9.984375-4.46875-9.984375-9.984376v-72.390624c0-5.515626 4.46875-9.988282 9.984375-9.988282h97.355469c5.515625 0 9.984375 4.472656 9.984375 9.988282zm0 0" id="svg_6" class="" fill="#ffffff" fill-opacity="1"/><path d="m384.414062 384.375c-18.007812 0-32.605468 14.597656-32.605468 32.609375 0 18.003906 14.597656 32.609375 32.605468 32.601563 18.007813 0 32.605469-14.597657 32.605469-32.601563-.023437-18-14.605469-32.585937-32.605469-32.609375zm0 0" id="svg_7" class="" fill="#ffffff" fill-opacity="1"/><path d="m385.691406 343.683594h-.015625c-20.589843.097656-40.242187 8.601562-54.417969 23.539062-30.101562 30.789063-30.496093 80.808594-.90625 111.355469.167969.175781.328126.375.484376.558594l52.675781 62.921875 53.578125-63.816406c.160156-.191407.332031-.375.507812-.558594 30.082032-30.757813 30.472656-80.816406.882813-111.367188-13.773438-14.433594-32.84375-22.609375-52.789063-22.632812zm-1.277344 125.875c-29.035156 0-52.574218-23.539063-52.574218-52.574219 0-29.039063 23.539062-52.578125 52.574218-52.578125 29.039063 0 52.578126 23.539062 52.578126 52.578125-.035157 29.019531-23.554688 52.539063-52.578126 52.574219zm0 0" id="svg_8" class="" fill="#ffffff" fill-opacity="1"/><path d="m384.4375 283c-86.15625 0-156 69.84375-156 156s69.84375 155.996094 156 155.996094c86.152344.007812 155.996094-69.835938 155.996094-155.996094-.09375-86.117188-69.882813-155.902344-155.996094-156zm67.710938 208.289062-60.996094 72.496094c-1.925782 2.191406-4.730469 3.410156-7.652344 3.320313-2.917969.082031-5.726562-1.152344-7.648438-3.355469l-60.097656-71.59375c-36.785156-38.269531-36.273437-100.554688 1.203125-138.886719 17.917969-18.804687 42.742188-29.484375 68.71875-29.558593h.015625c25.351563-.003907 49.605469 10.351562 67.132813 28.671874 36.957031 38.15625 36.621093 100.460938-.675781 138.90625zm0 0" id="svg_9" class="" fill="#ffffff" fill-opacity="1"/></g></svg>