<svg xmlns="http://www.w3.org/2000/svg" width="132.45378466435682" height="181.36134437618682" style=""><rect id="backgroundrect" width="100%" height="100%" x="0" y="0" fill="none" stroke="none" class="" style=""/><g class="currentLayer" style=""><title>Layer 1</title><g id="Diploma" class="selected" fill="#ffffff" fill-opacity="1"><path d="M87.88654992638583,114.23336178258336 a13.50511685393276,13.884472539192043 0 0 1 -3.9616258177625223,-4.814310866571443 a14.204410930511802,14.603409628600042 0 0 1 -0.5650545886643152,-6.4640147235165895 a10.345806115102441,10.636417474545174 0 0 0 -0.12175209369010123,-3.642828555705725 a11.45406235253798,11.77580437963375 0 0 0 -3.502714080007526,-0.08665759559828612 a14.145095807944827,14.54242835762347 0 0 1 -6.293646689211383,-0.5809268445662881 A13.467654671258881,13.84595805225947 0 0 1 68.74649642859069,94.55566850061703 c-0.6555881967928526,-0.7670801980737174 -2.185293989309508,-2.567632462171436 -2.7128863952999462,-2.567632462171436 s-2.0572981985070946,1.803761804675435 -2.7128863952999462,2.567632462171436 a13.448923579921942,13.826700808793186 0 0 1 -4.68277283423466,4.0729069931194415 a14.154461353613298,14.552056979356614 0 0 1 -6.287402992099069,0.5777173039885728 a10.486289300129481,10.780846800542317 0 0 0 -3.5432981112375592,0.1283816231085719 a11.282360681949372,11.599279647859463 0 0 0 -0.08428991101622402,3.6043140687731534 a14.204410930511802,14.603409628600042 0 0 1 -0.5650545886643152,6.4640147235165895 A13.50511685393276,13.884472539192043 0 0 1 44.18067014019567,114.23336178258336 c-0.7461218049213895,0.674003521320003 -2.4974788449251517,2.2466784044000065 -2.4974788449251517,2.789090762033723 s1.7544788885599198,2.115087240713721 2.4974788449251517,2.789090762033723 a13.50511685393276,13.884472539192043 0 0 1 3.9616258177625223,4.814310866571443 a14.204410930511802,14.603409628600042 0 0 1 0.5650545886643152,6.4640147235165895 a10.345806115102441,10.636417474545174 0 0 0 0.12175209369010123,3.642828555705725 a11.357285047297129,11.676308621724607 0 0 0 3.502714080007526,0.08665759559828612 c0.7461218049213895,-0.04814310866571447 1.5297057925166557,-0.09307667675371473 2.3226553257803917,-0.09307667675371473 a10.302100235316251,10.591483906457174 0 0 1 3.9709913634309917,0.674003521320003 A13.467654671258881,13.84595805225947 0 0 1 63.320723637990795,139.48923658861716 c0.6555881967928526,0.7670801980737174 2.185293989309508,2.567632462171436 2.7128863952999462,2.567632462171436 s2.0572981985070946,-1.803761804675435 2.7128863952999462,-2.567632462171436 a13.448923579921942,13.826700808793186 0 0 1 4.68277283423466,-4.0729069931194415 a14.294944538640337,14.696486305353758 0 0 1 6.287402992099069,-0.5777173039885728 a10.498776694354108,10.793684962853174 0 0 0 3.5432981112375592,-0.1283816231085719 a11.282360681949372,11.599279647859463 0 0 0 0.08428991101622402,-3.6043140687731534 a14.204410930511802,14.603409628600042 0 0 1 0.5650545886643152,-6.4640147235165895 A13.50511685393276,13.884472539192043 0 0 1 87.88654992638583,119.81154330665082 c0.7461218049213895,-0.674003521320003 2.4974788449251517,-2.2466784044000065 2.4974788449251517,-2.789090762033723 S88.62954988275106,114.90736530390338 87.88654992638583,114.23336178258336 z" id="svg_1" fill="#ffffff" fill-opacity="1"/><path d="M25.44957880325703,117.0224525446171 a40.584031230033716,41.724027510285836 0 1 1 67.13535320014424,31.482383526799516 l0.2778445214979234,0.6130222503434303 H128.47058115641954 V1.4789917469024658 H3.5966389101619525 V149.11785832176005 H39.204443541682295 l0.2778445214979234,-0.6130222503434303 A40.46852283345593,41.605274508910405 0 0 1 25.44957880325703,117.0224525446171 zM50.42436725250855,11.107613480045352 H81.64285281407295 V17.52669463547394 H50.42436725250855 zM16.084033134787713,30.364856946331123 H115.98318693179378 v6.41908115542859 H16.084033134787713 zm0,19.25724346628577 H115.98318693179378 v6.41908115542859 H16.084033134787713 z" id="svg_2" fill="#ffffff" fill-opacity="1"/><path d="M84.40881063482756,176.03306560647212 l1.9480334990416188,-5.51399071251316 a3.121848556156441,3.209540577714295 0 0 1 1.6139957035328796,-1.8101808858308632 a3.0937519191510323,3.1806547125148663 0 0 1 2.388214145459677,-0.10912437964228616 l5.369579516589076,2.005962861071435 L87.45885667419239,152.39158971102862 a40.24062788885651,41.370978046737264 0 0 1 -11.475915292431074,5.032559625856015 z" id="svg_3" fill="#ffffff" fill-opacity="1"/><path d="M100.37394415101159,117.0224525446171 A34.340334117720836,35.30494635485725 0 1 0 66.03361003329074,152.32739889947433 A34.380918148950876,35.346670382367535 0 0 0 100.37394415101159,117.0224525446171 zm-10.782864912964344,13.688690563951466 a10.252150658417747,10.540131257213746 0 0 1 -1.9230587105923675,8.553425639608596 a10.258394355530063,10.546550338369174 0 0 1 -8.319726402156912,1.9770769958720062 a10.857789278312099,11.162782129290319 0 0 0 -3.515201474232151,0.10270529848685757 a10.99515061478298,11.304001914709747 0 0 0 -2.388214145459677,2.36864094635315 A10.373902752107849,10.665303339744602 0 0 1 66.03361003329074,148.4759502062172 a10.367659054995539,10.658884258589174 0 0 1 -7.411268472315388,-4.762958217328014 a10.99515061478298,11.304001914709747 0 0 0 -2.388214145459677,-2.36864094635315 a10.957688432109103,11.265487427777176 0 0 0 -3.518323322788308,-0.10270529848685757 a10.302100235316251,10.591483906457174 0 0 1 -8.316604553600756,-1.9770769958720062 a10.252150658417747,10.540131257213746 0 0 1 -1.9230587105923675,-8.553425639608596 a11.029490948900701,11.339306861064605 0 0 0 -0.09989915379700616,-3.613942690506297 a11.041978343125328,11.352145023375462 0 0 0 -2.300802385887296,-2.455298541951436 A10.367659054995539,10.658884258589174 0 0 1 35.43949418295764,117.0224525446171 a10.367659054995539,10.658884258589174 0 0 1 4.635945105892314,-7.619449331493737 a11.041978343125328,11.352145023375462 0 0 0 2.300802385887296,-2.455298541951436 a11.029490948900701,11.339306861064605 0 0 0 0.09989915379700616,-3.613942690506297 a10.252150658417747,10.540131257213746 0 0 1 1.9230587105923675,-8.553425639608596 a10.258394355530063,10.546550338369174 0 0 1 8.319726402156912,-1.9770769958720062 a11.135633799810021,11.44843124070689 0 0 0 3.515201474232151,-0.10270529848685757 a10.99515061478298,11.304001914709747 0 0 0 2.388214145459677,-2.36864094635315 A10.373902752107849,10.665303339744602 0 0 1 66.03361003329074,85.568954883017 a10.367659054995539,10.658884258589174 0 0 1 7.411268472315388,4.762958217328014 a10.99515061478298,11.304001914709747 0 0 0 2.388214145459677,2.36864094635315 a10.876520369649036,11.182039372756604 0 0 0 3.518323322788308,0.10270529848685757 a10.302100235316251,10.591483906457174 0 0 1 8.316604553600756,1.9770769958720062 a10.252150658417747,10.540131257213746 0 0 1 1.9230587105923675,8.553425639608596 a11.029490948900701,11.339306861064605 0 0 0 0.09989915379700616,3.613942690506297 a11.041978343125328,11.352145023375462 0 0 0 2.300802385887296,2.455298541951436 A10.367659054995539,10.658884258589174 0 0 1 96.62772588362385,117.0224525446171 a10.367659054995539,10.658884258589174 0 0 1 -4.635945105892314,7.619449331493737 a11.041978343125328,11.352145023375462 0 0 0 -2.300802385887296,2.455298541951436 A11.029490948900701,11.339306861064605 0 0 0 89.59107923804724,130.71114310856856 z" id="svg_4" fill="#ffffff" fill-opacity="1"/><path d="M44.096380229179445,168.69605584581726 a3.121848556156441,3.209540577714295 0 0 1 1.6139957035328796,1.8101808858308632 l1.9480334990416188,5.51399071251316 l8.428991101622387,-18.61533535074291 a40.24062788885651,41.370978046737264 0 0 1 -11.475915292431074,-5.032559625856015 L36.33858656713068,170.6217801924458 l5.369579516589076,-2.005962861071435 A3.0937519191510323,3.1806547125148663 0 0 1 44.096380229179445,168.69605584581726 z" id="svg_5" fill="#ffffff" fill-opacity="1"/></g></g></svg>