<svg xmlns="http://www.w3.org/2000/svg" height="306.1596687143949" width="439.31932781190653" style=""><rect id="backgroundrect" width="100%" height="100%" x="0" y="0" fill="none" stroke="none" class="" style=""/><g class="currentLayer" style=""><title>Layer 1</title><path d="m217.1220781687317,269.5904011958008 c-1.351562,-0.003907000000000001 -2.6835940000000003,-0.34765700000000005 -3.867187,-1 l-124.132813,-68.488282 v93.488282 c0,4.417968 3.582032,8 8,8 h240 c4.417969,0 8,-3.582032 8,-8 v-93.488282 l-124.136718,68.488282 c-1.183594,0.6523430000000001 -2.5117190000000003,0.996093 -3.863282,1 zm0,0 " id="svg_1" class="" fill="#ffffff" fill-opacity="1"/><path d="m432.55957816873166,119.304688 l-215.4375,-118.863282 l-215.441406,118.863282 l215.441406,118.863281 zm0,0 " id="svg_2" class="" fill="#ffffff" fill-opacity="1"/><path d="m399.441406,149.1870408289795 h16 v104 h-16 zm0,0 " id="svg_3" class="" fill="#ffffff" fill-opacity="1"/><path d="m391.441406,269.1870408289795 h32 v16 h-32 zm0,0 " id="svg_4" class="" fill="#ffffff" fill-opacity="1"/></g></svg>