<svg xmlns="http://www.w3.org/2000/svg" enable-background="new 0 0 510 510" height="510" width="510"><rect id="backgroundrect" width="100%" height="100%" x="0" y="0" fill="none" stroke="none"/><g class="currentLayer" style=""><title>Layer 1</title><path d="m84.88 259.53c7.33-3.86 16.4-1.05 20.27 6.28l59.57 113.05c5.19-1.84 10.77-2.84 16.58-2.84h39.56c.24-40.15 32.96-72.75 73.14-72.75h26.35c-6.43-10.05-10.16-22-10.16-34.79v-29.21c0-36.05 29.6-65.327 65.783-64.783 35.555.535 63.797 30.206 63.797 65.766v28.227c0 12.79-3.73 24.74-10.16 34.79h37.26c4.74 0 9.38.45 13.88 1.33v-224.79h-451.5v319.98c0 5.523 4.477 10 10 10h94.84c1.54-4.51 3.71-8.72 6.4-12.55l-61.89-117.45c-3.86-7.33-1.05-16.4 6.28-20.26zm19.69-138.08h153.73c8.28 0 15 6.71 15 15 0 8.28-6.72 15-15 15h-153.73c-8.28 0-15-6.72-15-15 0-8.29 6.72-15 15-15zm0 69.92h153.73c8.28 0 15 6.72 15 15s-6.72 15-15 15h-153.73c-8.28 0-15-6.72-15-15s6.72-15 15-15z" id="svg_1" class="" fill="#ffffff" fill-opacity="1"/><path d="m466.87 333.27h-172.87c-23.78 0-43.14 19.37-43.14 43.18v14.57c0 8.28-6.71 15-15 15h-54.56c-10.535 0-19.282 8.291-19.86 18.77-.849 10.765 7.979 21.08 19.86 21.08h90.55c8.719 0 15.77-7.115 15.77-15.79v-22.608c0-8.082 6.216-15.034 14.29-15.406 8.614-.397 15.71 6.468 15.71 14.984v92.95c0 5.523 4.477 10 10 10h104.71v-102.528c0-8.082 6.216-15.034 14.29-15.406 8.614-.397 15.71 6.468 15.71 14.984v102.95h37.67c5.523 0 10-4.477 10-10v-123.55c0-23.829-19.368-43.18-43.13-43.18z" id="svg_2" class="" fill="#ffffff" fill-opacity="1"/><path d="m340.19 239.27v29.21c0 19.18 15.6 34.79 34.79 34.79 19.18 0 34.79-15.61 34.79-34.79v-29.21c0-19.18-15.61-34.79-34.79-34.79-19.19 0-34.79 15.61-34.79 34.79z" id="svg_3" class="" fill="#ffffff" fill-opacity="1"/><path d="m0 10v29.81c0 5.523 4.477 10 10 10h490c5.523 0 10-4.477 10-10v-29.81c0-5.523-4.477-10-10-10h-490c-5.523 0-10 4.477-10 10z" id="svg_4" class="" fill="#ffffff" fill-opacity="1"/></g></svg>