<svg xmlns="http://www.w3.org/2000/svg" height="462.68067218809347" width="338.3109302691805"><rect id="backgroundrect" width="100%" height="100%" x="0" y="0" fill="none" stroke="none"/><g class="currentLayer" style=""><title>Layer 1</title><path d="m208.085938 269.167969c0 8.835937-7.164063 16-16 16-8.839844 0-16-7.164063-16-16 0-8.835938 7.160156-16 16-16 8.835937 0 16 7.164062 16 16zm0 0" id="svg_1" class="" fill="#ffffff" fill-opacity="1"/><path d="m128.085938 269.167969c0 8.835937-7.164063 16-16 16-8.839844 0-16-7.164063-16-16 0-8.835938 7.160156-16 16-16 8.835937 0 16 7.164062 16 16zm0 0" id="svg_2" class="" fill="#ffffff" fill-opacity="1"/><path d="m240.085938 309.167969v-32h-17.136719c-3.59375 14.113281-16.300781 23.992187-30.863281 23.992187-14.566407 0-27.273438-9.878906-30.867188-23.992187h-18.269531c-3.59375 14.113281-16.300781 23.992187-30.863281 23.992187-14.566407 0-27.273438-9.878906-30.867188-23.992187h-17.132812v32c.035156 30.914062 25.085937 55.964843 56 56h64c30.910156-.035157 55.960937-25.085938 56-56zm0 0" id="svg_3" class="" fill="#ffffff" fill-opacity="1"/><path d="m48.085938 253.167969c-4.421876 0-8 3.582031-8 8v16c0 4.417969 3.578124 8 8 8zm0 0" id="svg_4" class="" fill="#ffffff" fill-opacity="1"/><path d="m120.085938 413.167969c0 17.671875 14.324218 32 32 32 17.671874 0 32-14.328125 32-32v-32h-64zm0 0" id="svg_5" class="" fill="#ffffff" fill-opacity="1"/><path d="m222.949219 261.167969h17.136719v-40h-176v40h17.132812c3.59375-14.113281 16.300781-23.992188 30.867188-23.992188 14.5625 0 27.269531 9.878907 30.863281 23.992188h18.269531c3.59375-14.113281 16.300781-23.992188 30.867188-23.992188 14.5625 0 27.269531 9.878907 30.863281 23.992188zm0 0" id="svg_6" class="" fill="#ffffff" fill-opacity="1"/><path d="m104.085938 413.167969h-80c-13.257813 0-24.0000005 10.746093-24.0000005 24v24h152.0000005c-26.5-.027344-47.976563-21.5-48-48zm0 0" id="svg_7" class="" fill="#ffffff" fill-opacity="1"/><path d="m280.085938 413.167969h-80c-.027344 26.5-21.503907 47.972656-48 48h152v-24c0-13.253907-10.746094-24-24-24zm0 0" id="svg_8" class="" fill="#ffffff" fill-opacity="1"/><path d="m70.347656 6.039062 119.863282 87.015626 81.496093-3.398438-70.710937-36.28125 7.304687-14.230469 74.039063 38.023438c5.34375 2.761719 9.992187 6.699219 13.601562 11.511719l38.582032-1.601563-119.925782-87.078125zm0 0" id="svg_9" class="" fill="#ffffff" fill-opacity="1"/><path d="m94.84375 129.679688 7.9375 5.191406c41.949219 27.570312 91.667969 40.890625 141.78125 37.992187l9.601562-.558593c3.410157-.242188 6.296876-2.609376 7.199219-5.90625l16.402344-60.992188-89.679687 3.761719h-.320313c-1.6875 0-3.332031-.53125-4.699219-1.519531l-73.78125-53.601563-17.875 66.761719c-.65625 2.542968-.039062 5.25 1.65625 7.253906.507813.628906 1.105469 1.171875 1.777344 1.617188zm0 0" id="svg_10" class="" fill="#ffffff" fill-opacity="1"/><path d="m303.109375 104.367188-16.335937.6875c.851562 2.476562 1.296874 5.078124 1.3125 7.699218v108.414063h16v-108.457031c-.035157-2.808594-.359376-5.605469-.976563-8.34375zm0 0" id="svg_11" class="" fill="#ffffff" fill-opacity="1"/><path d="m240.085938 189c-3.058594.113281-6.113282.273438-9.171876.273438-48.652343-.074219-96.230468-14.332032-136.910156-41.027344l-8.054687-5.261719c-.804688-.5625-1.578125-1.167969-2.3125-1.816406h-67.550781v24c.023437 22.082031 17.917968 39.972656 40 40h184zm0 0" id="svg_12" class="" fill="#ffffff" fill-opacity="1"/><path d="m264.085938 277.167969v-16c0-4.417969-3.582032-8-8-8v32c4.417968 0 8-3.582031 8-8zm0 0" id="svg_13" class="" fill="#ffffff" fill-opacity="1"/></g></svg>