<svg xmlns="http://www.w3.org/2000/svg" xmlns:xlink="http://www.w3.org/1999/xlink" version="1.1" width="483" height="485.76470531665393" style="enable-background:new 0 0 482.833 482.833;" xml:space="preserve"><rect id="backgroundrect" width="100%" height="100%" x="0" y="0" fill="none" stroke="none" class="" style=""/>
















<g class="currentLayer" style=""><title>Layer 1</title><g id="svg_1" class="" fill="#ffffff" fill-opacity="1">
	<g id="Layer_2_42_" fill="#ffffff" fill-opacity="1">
		<g id="svg_2" fill="#ffffff" fill-opacity="1">
			<path d="M189.457,194.068c-13.323,0-24.125,10.803-24.125,24.106c0,13.29,10.802,24.11,24.125,24.11     c13.289,0,24.09-10.784,24.09-24.11C213.547,204.871,202.746,194.068,189.457,194.068z M194.399,233.537     c-6.828,0-12.357-5.544-12.357-12.391c0-6.811,5.529-12.352,12.357-12.352c6.824,0,12.337,5.541,12.337,12.352     C206.736,227.993,201.224,233.537,194.399,233.537z" id="svg_3" fill="#ffffff" fill-opacity="1"/>
			<path d="M293.375,194.068c-13.289,0-24.09,10.803-24.09,24.106c0,13.327,10.801,24.11,24.09,24.11     c13.323,0,24.125-10.82,24.125-24.11C317.5,204.871,306.698,194.068,293.375,194.068z M288.434,233.537     c-6.824,0-12.338-5.544-12.338-12.391c0-6.811,5.514-12.352,12.338-12.352c6.827,0,12.356,5.541,12.356,12.352     C300.79,227.993,295.261,233.537,288.434,233.537z" id="svg_4" fill="#ffffff" fill-opacity="1"/>
			<path d="M465.946,6.71H241.828h-0.412h-0.412H16.886C7.563,6.71,0,14.216,0,23.479v2.996c0,8.203,5.939,15.018,13.771,16.47     v0.427h88.636l-19.578,97.506c-12.148,6-25.25,20.113-20.957,53.311l0.049,0.373c0.73,5.655,1.658,12.789,3.83,19.793     c0.001,98.169-34.293,94.783-32.81,116.755c0.948,14.065,22.415,21.838,72.563,25.721C84.731,369.291,67.87,389.99,67.87,413.837     c0,38.928,0,62.285,0,62.285h161.58c0,0,0.23-78.172,0.23-78.193c0-5.479-2.84-10.283-7.122-13.051l-0.027-0.049     c0,0-41.718-25.038-40.924-25.026v-35.198c18.471,9.367,38.538,15.082,59.397,15.215v0.008c0.068,0,0.137-0.004,0.206-0.004     c0.068,0,0.138,0.004,0.206,0.004s0.138-0.004,0.206-0.004c0.069,0,0.138,0.004,0.206,0.004v-0.008     c20.859-0.133,40.927-5.848,59.396-15.215v35.198c0.794-0.012-40.924,25.026-40.924,25.026l-0.027,0.049     c-4.281,2.768-7.121,7.572-7.121,13.051c0,0.021,0.229,78.193,0.229,78.193h161.58c0,0,0-23.357,0-62.285     c0-23.848-16.86-44.547-37.634-57.006c50.146-3.883,71.614-11.655,72.562-25.721c1.482-21.973-32.812-18.584-32.811-116.755     c2.172-7.004,3.1-14.139,3.83-19.793l0.049-0.373c4.293-33.197-8.808-47.311-20.957-53.311l-19.576-97.507h88.637v-0.427     c7.83-1.452,13.771-8.267,13.771-16.47v-2.996C482.832,14.216,475.27,6.71,465.946,6.71z M386.342,158.692     c4.932,1.232,16.904,4.374,13.237,32.73l-0.048,0.375c-2.526,19.552-5.82,28.857-17.707,28.857c-0.355,0-0.892-0.042-1.458-0.086     l-7.74-0.57l-3.265,6.332c-22.756,44.138-72.391,91.626-127.739,91.932c-0.068,0-0.138-0.003-0.206-0.004     c-0.068,0-0.138,0.003-0.206,0.004c-55.35-0.306-104.983-47.794-127.739-91.932l-3.265-6.332l-7.74,0.57     c-0.566,0.044-1.103,0.086-1.458,0.086c-11.887,0-15.181-9.305-17.707-28.857l-0.048-0.375     c-3.667-28.356,8.307-31.499,13.237-32.73c4.439-1.109,72.846,6.273,127.215-3.767c6.211-1.147,12.878-2.98,17.878-2.98     s8.916,1.25,14.623,2.494C310.78,166.331,381.824,157.562,386.342,158.692z" id="svg_5" fill="#ffffff" fill-opacity="1"/>
		</g>
	</g>
</g><g id="svg_6">
</g><g id="svg_7">
</g><g id="svg_8">
</g><g id="svg_9">
</g><g id="svg_10">
</g><g id="svg_11">
</g><g id="svg_12">
</g><g id="svg_13">
</g><g id="svg_14">
</g><g id="svg_15">
</g><g id="svg_16">
</g><g id="svg_17">
</g><g id="svg_18">
</g><g id="svg_19">
</g><g id="svg_20">
</g></g></svg>