<svg xmlns="http://www.w3.org/2000/svg" enable-background="new 0 0 209.513 209.513" height="209.513" width="209.513" style=""><rect id="backgroundrect" width="100%" height="100%" x="0" y="0" fill="none" stroke="none"/><g class="currentLayer" style=""><title>Layer 1</title><path d="m35.013 58.028c1.708 35.687 13.318 97.032 69.743 126.605 56.425-29.573 68.032-90.915 69.743-126.605l-69.743-33.211zm80.219 4.826c0-1.928 1.564-3.492 3.492-3.492h34.919c1.928 0 3.492 1.564 3.492 3.492v13.968c0 1.928-1.564 3.492-3.492 3.492h-6.984v31.427c0 23.106-18.797 41.903-41.903 41.903s-41.903-18.797-41.903-41.903v-31.428h-6.983c-1.928 0-3.492-1.564-3.492-3.492v-13.967c0-1.928 1.564-3.492 3.492-3.492h34.919c1.928 0 3.492 1.564 3.492 3.492v13.968c0 1.928-1.564 3.492-3.492 3.492h-6.984v31.427c0 11.555 9.4 20.951 20.951 20.951 11.555 0 20.951-9.397 20.951-20.951v-31.428h-6.984c-1.928 0-3.492-1.564-3.492-3.492.001 0 .001-13.967.001-13.967z" id="svg_1" class="" fill="#ffffff" fill-opacity="1"/><path d="m132.691 76.821v34.919c0 15.403-12.532 27.935-27.935 27.935s-27.935-12.532-27.935-27.935v-34.919c0-1.928 1.564-3.492 3.492-3.492h6.984v-6.984h-27.935v6.984h6.984c1.928 0 3.492 1.564 3.492 3.492v34.919c0 19.254 15.665 34.919 34.919 34.919s34.919-15.665 34.919-34.919v-34.919c0-1.928 1.564-3.492 3.492-3.492h6.984v-6.984h-27.935v6.984h6.984c1.926 0 3.49 1.565 3.49 3.492z" id="svg_2" class="" fill="#ffffff" fill-opacity="1"/><path d="m193.562 42.248-87.297-41.902c-.953-.461-2.067-.461-3.02 0l-87.298 41.902c-1.212.583-1.98 1.805-1.98 3.146 0 78.864 32.576 138.575 89.371 163.818.45.203.936.3 1.418.3.485 0 .967-.101 1.418-.3 56.795-25.243 89.371-84.95 89.371-163.818 0-1.344-.772-2.566-1.983-3.146zm-87.231 149.428c-.496.251-1.037.377-1.578.377s-1.082-.126-1.578-.377c-62.222-31.497-73.85-98.523-75.239-135.673-.052-1.393.726-2.685 1.987-3.282l73.329-34.919c.95-.454 2.053-.454 3.003 0l73.329 34.919c1.261.601 2.039 1.893 1.99 3.282-1.393 37.15-13.018 104.18-75.243 135.673z" id="svg_3" class="" fill="#ffffff" fill-opacity="1"/></g></svg>